<svg width="18" height="16" viewBox="0 0 18 16" fill="none" xmlns="http://www.w3.org/2000/svg">
<path d="M12.8972 0.60376C14.0147 0.60376 15.0897 1.04543 15.8805 1.83793C16.6722 2.62876 17.1147 3.69543 17.1147 4.81209V11.3954C17.1147 13.7204 15.223 15.6038 12.8972 15.6038H4.66466C2.33883 15.6038 0.447998 13.7204 0.447998 11.3954V4.81209C0.447998 2.48709 2.3305 0.60376 4.66466 0.60376H12.8972ZM13.8397 4.93709C13.6647 4.92793 13.498 4.98709 13.3722 5.10376L9.61466 8.10376C9.13133 8.50459 8.43883 8.50459 7.948 8.10376L4.198 5.10376C3.93883 4.91209 3.5805 4.93709 3.36466 5.16209C3.13966 5.38709 3.11466 5.74543 3.3055 5.99543L3.41466 6.10376L7.20633 9.06209C7.673 9.42876 8.23883 9.62876 8.83133 9.62876C9.42216 9.62876 9.998 9.42876 10.4638 9.06209L14.223 6.05376L14.2897 5.98709C14.4888 5.74543 14.4888 5.39543 14.2805 5.15376C14.1647 5.02959 14.0055 4.95376 13.8397 4.93709Z" fill="white"/>
</svg>
